<svg data-v-5f19e91b="" xmlns="http://www.w3.org/2000/svg" width="757" height="90" viewBox="0 0 757 90"><!----> <!----> <!----> <g data-v-5f19e91b="" id="0627e329-2605-4fc2-61a3-50d2faa0ebb5" fill="black" transform="matrix(5.830903811703725,0,0,5.830903811703725,82.35677280961062,12.551021672677557)"><path d="M8.32 10.50L8.58 9.02L2.98 9.02L3.54 6.10L8.30 6.10L8.60 4.62L3.84 4.62L4.35 1.90L9.81 1.90L10.11 0.42L3.00 0.42L1.06 10.50ZM11.58 10.50L12.32 6.54C12.61 5.10 13.48 4.33 14.49 4.33C15.48 4.33 15.72 4.98 15.51 6.09L14.67 10.50L16.23 10.50L17.08 6.03C17.40 4.30 17.11 3.01 15.09 3.01C14.14 3.01 13.34 3.37 12.64 4.27L12.84 3.22L11.41 3.22L10.02 10.50ZM21.25 10.50L25.45 3.22L23.90 3.22L20.89 8.65L19.99 3.22L18.41 3.22L19.87 10.50ZM28.27 2.00L28.56 0.42L27.01 0.42L26.71 2.00ZM26.63 10.50L28.01 3.22L26.46 3.22L25.07 10.50ZM29.88 10.50L30.58 6.82C30.84 5.40 31.64 4.47 32.84 4.47C33.28 4.47 33.52 4.59 33.77 4.77L34.38 3.39C34.09 3.12 33.73 3.01 33.17 3.01C32.21 3.01 31.54 3.50 30.90 4.48L31.14 3.22L29.71 3.22L28.32 10.50ZM34.17 6.86C33.70 9.37 34.92 10.71 36.90 10.71C38.89 10.71 40.64 9.37 41.12 6.86C41.62 4.35 40.38 3.01 38.39 3.01C36.40 3.01 34.66 4.35 34.17 6.86ZM35.73 6.86C36.06 5.10 37.09 4.31 38.15 4.31C39.20 4.31 39.91 5.10 39.56 6.86C39.24 8.62 38.22 9.42 37.16 9.42C36.11 9.42 35.39 8.62 35.73 6.86ZM43.20 10.50L43.95 6.54C44.24 5.10 45.11 4.33 46.12 4.33C47.11 4.33 47.35 4.98 47.14 6.09L46.30 10.50L47.85 10.50L48.71 6.03C49.03 4.30 48.73 3.01 46.72 3.01C45.77 3.01 44.97 3.37 44.27 4.27L44.46 3.22L43.04 3.22L41.65 10.50ZM51.03 10.50L51.74 6.73C52.00 5.46 52.56 4.33 53.82 4.33C54.54 4.33 54.85 4.84 54.66 5.88L53.77 10.50L55.33 10.50L56.11 6.34C56.34 5.19 57.01 4.33 58.09 4.33C59.02 4.33 59.08 5.08 58.91 5.98L58.04 10.50L59.60 10.50L60.54 5.52C60.86 3.89 60.20 3.01 58.74 3.01C57.83 3.01 56.95 3.39 56.29 4.35C56.17 3.50 55.55 3.01 54.49 3.01C53.52 3.01 52.77 3.36 52.09 4.26L52.29 3.22L50.86 3.22L49.48 10.50ZM67.84 8.37L66.43 8.06C66.04 8.93 65.25 9.42 64.47 9.42C63.46 9.42 62.71 8.76 62.92 7.28L65.28 7.28C66.86 7.28 68.22 6.80 68.26 5.17C68.29 4.00 67.30 3.01 65.60 3.01C63.64 3.01 61.92 4.35 61.43 6.86C60.96 9.37 62.15 10.71 64.12 10.71C65.76 10.71 67.07 9.93 67.84 8.37ZM65.34 4.31C66.05 4.31 66.72 4.61 66.71 5.19C66.70 5.88 66.22 6.13 65.45 6.13L63.17 6.13C63.59 4.89 64.53 4.31 65.34 4.31ZM70.18 10.50L70.92 6.54C71.22 5.10 72.09 4.33 73.09 4.33C74.09 4.33 74.33 4.98 74.12 6.09L73.28 10.50L74.83 10.50L75.68 6.03C76.01 4.30 75.71 3.01 73.70 3.01C72.74 3.01 71.95 3.37 71.25 4.27L71.44 3.22L70.01 3.22L68.63 10.50ZM79.83 9.20C79.59 9.27 79.38 9.28 79.24 9.28C78.58 9.28 78.67 8.83 78.79 8.20L79.52 4.44L80.81 4.44L81.05 3.22L79.74 3.22L80.19 0.85L78.53 1.46L78.19 3.22L77.15 3.22L76.93 4.44L77.97 4.44L77.20 8.37C76.93 9.80 77.10 10.64 78.62 10.64C78.89 10.64 79.42 10.57 79.73 10.47ZM86.95 10.50L87.78 6.10L92.62 6.10L91.80 10.50L93.45 10.50L95.38 0.42L93.73 0.42L92.92 4.62L88.07 4.62L88.89 0.42L87.23 0.42L85.30 10.50ZM101.88 8.37L100.46 8.06C100.07 8.93 99.29 9.42 98.50 9.42C97.50 9.42 96.74 8.76 96.95 7.28L99.32 7.28C100.90 7.28 102.26 6.80 102.30 5.17C102.33 4.00 101.33 3.01 99.64 3.01C97.68 3.01 95.96 4.35 95.47 6.86C94.99 9.37 96.18 10.71 98.15 10.71C99.79 10.71 101.11 9.93 101.88 8.37ZM99.37 4.31C100.09 4.31 100.76 4.61 100.74 5.19C100.73 5.88 100.25 6.13 99.48 6.13L97.20 6.13C97.62 4.89 98.56 4.31 99.37 4.31ZM104.22 10.50L104.92 6.82C105.18 5.40 105.98 4.47 107.18 4.47C107.62 4.47 107.86 4.59 108.11 4.77L108.72 3.39C108.43 3.12 108.07 3.01 107.51 3.01C106.55 3.01 105.88 3.50 105.24 4.48L105.48 3.22L104.05 3.22L102.66 10.50ZM108.51 6.86C108.04 9.37 109.26 10.71 111.24 10.71C113.23 10.71 114.98 9.37 115.46 6.86C115.96 4.35 114.72 3.01 112.73 3.01C110.74 3.01 109.00 4.35 108.51 6.86ZM110.07 6.86C110.40 5.10 111.43 4.31 112.49 4.31C113.54 4.31 114.25 5.10 113.90 6.86C113.58 8.62 112.56 9.42 111.50 9.42C110.45 9.42 109.73 8.62 110.07 6.86Z"></path></g> <!----> <g data-v-5f19e91b="" id="8098c7a5-35fb-452a-0d4b-ce926a0cbb1a" transform="matrix(0.9782608695652174,0,0,0.9782608695652174,-13.943340861279033,-2.913043530090995)" stroke="none" fill="black"><g><path d="M84.292,69.658l-21.02-48.412c-1.514-3.487-5.744-6.365-9.586-6.6c1.385-1.092,2.277-2.781,2.277-4.682   c0-3.295-2.67-5.964-5.965-5.964c-3.292,0-5.963,2.669-5.963,5.964c0,1.9,0.893,3.589,2.276,4.681   c-3.846,0.228-8.087,3.108-9.604,6.601L15.69,69.658c-1.581,3.64-0.472,4.434,2.464,1.766c0,0,8.302-7.543,24.096-9.538   c0.413,3.012,0.829,6.001,1.238,8.879c0.948,6.679,1.786,12.286,2.425,16.214c0.353,2.166,0.648,3.849,0.879,5.001   c0.132,0.658,0.245,1.156,0.346,1.522c0.076,0.277,0.149,0.498,0.232,0.691C47.934,95.525,49.1,96,50.002,96   c0.925,0,2.106-0.49,2.65-1.865c0.073-0.186,0.141-0.396,0.21-0.663c0.095-0.36,0.203-0.853,0.33-1.505   c0.225-1.149,0.515-2.828,0.863-4.989c0.636-3.944,1.472-9.547,2.42-16.205c0.413-2.904,0.834-5.911,1.25-8.933   c16.495,1.904,24.256,9.418,24.256,9.418C84.832,74.018,85.871,73.298,84.292,69.658z M50.002,93.234   c-0.759,0-6.424-42.984-8.657-61.918C35.516,39.264,27.708,51.69,27.454,51.69c-0.002,0-0.003,0-0.004-0.001   c-0.308-0.181,12.688-28.641,13.921-30.735c0.28-0.475,0.608-0.83,0.966-1.087c1.921-1.774,4.987-2.513,7.665-2.513   c2.707,0,5.809,0.755,7.727,2.57c0.327,0.252,0.628,0.589,0.888,1.029c0.023,0.041,0.054,0.094,0.085,0.153   c0.16,0.257,0.299,0.529,0.417,0.815c2.706,5.458,13.702,29.602,13.419,29.768c-0.001,0.001-0.002,0.001-0.004,0.001   c-0.255,0-8.055-12.417-13.882-20.363C56.396,50.267,50.687,93.234,50.002,93.234z M49.999,6.548c1.795,0,3.25,1.454,3.25,3.249   c0,1.795-1.455,3.25-3.25,3.25c-1.793,0-3.248-1.455-3.248-3.25C46.751,8.002,48.206,6.548,49.999,6.548z"></path></g></g></svg>